<svg width="30" height="30" viewBox="0 0 30 30" fill="none" xmlns="http://www.w3.org/2000/svg">
<path d="M23.3873 10.2625C23.2711 10.1453 23.1328 10.0523 22.9805 9.98888C22.8282 9.92542 22.6648 9.89275 22.4998 9.89275C22.3348 9.89275 22.1714 9.92542 22.0191 9.98888C21.8667 10.0523 21.7285 10.1453 21.6123 10.2625L15.8873 15.9875C15.7711 16.1046 15.6328 16.1976 15.4805 16.2611C15.3282 16.3246 15.1648 16.3572 14.9998 16.3572C14.8348 16.3572 14.6714 16.3246 14.519 16.2611C14.3667 16.1976 14.2285 16.1046 14.1123 15.9875L8.38727 10.2625C8.27107 10.1453 8.13282 10.0523 7.98049 9.98888C7.82817 9.92542 7.66478 9.89275 7.49977 9.89275C7.33476 9.89275 7.17137 9.92542 7.01905 9.98888C6.86672 10.0523 6.72847 10.1453 6.61227 10.2625C6.37946 10.4967 6.24878 10.8135 6.24878 11.1437C6.24878 11.474 6.37946 11.7908 6.61227 12.025L12.3498 17.7625C13.0529 18.4647 14.006 18.8592 14.9998 18.8592C15.9935 18.8592 16.9466 18.4647 17.6498 17.7625L23.3873 12.025C23.6201 11.7908 23.7508 11.474 23.7508 11.1437C23.7508 10.8135 23.6201 10.4967 23.3873 10.2625V10.2625Z" fill="white"/>
</svg>
