<svg width="30" height="30" viewBox="0 0 30 30" fill="none" xmlns="http://www.w3.org/2000/svg">
<path d="M6.61273 19.7375C6.72893 19.8547 6.86718 19.9477 7.01951 20.0111C7.17183 20.0746 7.33521 20.1073 7.50023 20.1073C7.66524 20.1073 7.82863 20.0746 7.98095 20.0111C8.13327 19.9477 8.27152 19.8547 8.38773 19.7375L14.1127 14.0125C14.2289 13.8954 14.3672 13.8024 14.5195 13.7389C14.6718 13.6754 14.8352 13.6428 15.0002 13.6428C15.1652 13.6428 15.3286 13.6754 15.481 13.7389C15.6333 13.8024 15.7715 13.8954 15.8877 14.0125L21.6127 19.7375C21.7289 19.8547 21.8672 19.9477 22.0195 20.0111C22.1718 20.0746 22.3352 20.1073 22.5002 20.1073C22.6652 20.1073 22.8286 20.0746 22.981 20.0111C23.1333 19.9477 23.2715 19.8547 23.3877 19.7375C23.6205 19.5033 23.7512 19.1865 23.7512 18.8563C23.7512 18.526 23.6205 18.2092 23.3877 17.975L17.6502 12.2375C16.9471 11.5353 15.994 11.1408 15.0002 11.1408C14.0065 11.1408 13.0534 11.5353 12.3502 12.2375L6.61273 17.975C6.37992 18.2092 6.24924 18.526 6.24924 18.8563C6.24924 19.1865 6.37992 19.5033 6.61273 19.7375Z" fill="white"/>
<path d="M6.61273 19.7375C6.72893 19.8547 6.86718 19.9477 7.01951 20.0111C7.17183 20.0746 7.33521 20.1073 7.50023 20.1073C7.66524 20.1073 7.82863 20.0746 7.98095 20.0111C8.13327 19.9477 8.27152 19.8547 8.38773 19.7375L14.1127 14.0125C14.2289 13.8954 14.3672 13.8024 14.5195 13.7389C14.6718 13.6754 14.8352 13.6428 15.0002 13.6428C15.1652 13.6428 15.3286 13.6754 15.481 13.7389C15.6333 13.8024 15.7715 13.8954 15.8877 14.0125L21.6127 19.7375C21.7289 19.8547 21.8672 19.9477 22.0195 20.0111C22.1718 20.0746 22.3352 20.1073 22.5002 20.1073C22.6652 20.1073 22.8286 20.0746 22.981 20.0111C23.1333 19.9477 23.2715 19.8547 23.3877 19.7375C23.6205 19.5033 23.7512 19.1865 23.7512 18.8563C23.7512 18.526 23.6205 18.2092 23.3877 17.975L17.6502 12.2375C16.9471 11.5353 15.994 11.1408 15.0002 11.1408C14.0065 11.1408 13.0534 11.5353 12.3502 12.2375L6.61273 17.975C6.37992 18.2092 6.24924 18.526 6.24924 18.8563C6.24924 19.1865 6.37992 19.5033 6.61273 19.7375Z" stroke="white"/>
</svg>
